HIERARCHY
ROOT Storm:Solving:Root
{
	OFFSET 0.000000 0.000000 0.000000
	CHANNELS 6 Xposition Yposition Zposition Xrotation Yrotation Zrotation
	JOINT Storm:Solving:L_Clav
	{
		OFFSET 0.000000 0.000000 0.000000
		CHANNELS 6 Xposition Yposition Zposition Xrotation Yrotation Zrotation
		JOINT Storm:Solving:L_Scapula_Joint
		{
			OFFSET 4.000000 0.000000 0.000000
			CHANNELS 6 Xposition Yposition Zposition Xrotation Yrotation Zrotation
			JOINT Storm:Solving:L_Shoulder_Joint
			{
				OFFSET 4.002680 -10.770058 -11.084216
				CHANNELS 6 Xposition Yposition Zposition Xrotation Yrotation Zrotation
				JOINT Storm:Solving:L_Elbow_Joint
				{
					OFFSET 2.147804 8.035205 -15.161017
					CHANNELS 6 Xposition Yposition Zposition Xrotation Yrotation Zrotation
					JOINT Storm:Solving:L_Wrist_Joint
					{
						OFFSET -2.240269 9.040073 -20.029085
						CHANNELS 6 Xposition Yposition Zposition Xrotation Yrotation Zrotation
						JOINT Storm:Solving:L_Paw_Joint
						{
							OFFSET 0.706234 -1.834930 -5.721245
							CHANNELS 6 Xposition Yposition Zposition Xrotation Yrotation Zrotation
							End Site
							{
								OFFSET 1.343818 -4.244948 -3.510090
							}
						}
					}
				}
			}
		}
	}
	JOINT Storm:Solving:R_Clav
	{
		OFFSET 0.000000 0.000000 0.000000
		CHANNELS 6 Xposition Yposition Zposition Xrotation Yrotation Zrotation
		JOINT Storm:Solving:R_Scapula_Joint
		{
			OFFSET -4.000000 -0.000001 0.000000
			CHANNELS 6 Xposition Yposition Zposition Xrotation Yrotation Zrotation
			JOINT Storm:Solving:NewBone_3
			{
				OFFSET -4.614829 -9.889530 -11.686038
				CHANNELS 6 Xposition Yposition Zposition Xrotation Yrotation Zrotation
				JOINT Storm:Solving:R_Elbow_Joint
				{
					OFFSET -0.160743 5.491839 -16.404385
					CHANNELS 6 Xposition Yposition Zposition Xrotation Yrotation Zrotation
					JOINT Storm:Solving:R_Wrist_Joint
					{
						OFFSET 2.412016 -1.190895 -21.935680
						CHANNELS 6 Xposition Yposition Zposition Xrotation Yrotation Zrotation
						JOINT Storm:Solving:R_Paw_Joint
						{
							OFFSET -0.535018 -3.806499 -3.351765
							CHANNELS 6 Xposition Yposition Zposition Xrotation Yrotation Zrotation
							End Site
							{
								OFFSET -0.877549 -5.252174 -2.975662
							}
						}
					}
				}
			}
		}
	}
	JOINT Storm:Solving:Root_To_Spine_Dummy
	{
		OFFSET 0.000000 0.000000 0.000000
		CHANNELS 6 Xposition Yposition Zposition Xrotation Yrotation Zrotation
		JOINT Storm:Solving:Spine1
		{
			OFFSET 0.000000 3.827275 -0.000000
			CHANNELS 6 Xposition Yposition Zposition Xrotation Yrotation Zrotation
			JOINT Storm:Solving:Spine2
			{
				OFFSET 0.000001 16.939260 -0.000001
				CHANNELS 6 Xposition Yposition Zposition Xrotation Yrotation Zrotation
				JOINT Storm:Solving:Spine3
				{
					OFFSET 0.000002 14.393892 -0.000001
					CHANNELS 6 Xposition Yposition Zposition Xrotation Yrotation Zrotation
					JOINT Storm:Solving:Pelvis_Root
					{
						OFFSET 0.000002 14.393890 -0.000001
						CHANNELS 6 Xposition Yposition Zposition Xrotation Yrotation Zrotation
						JOINT Storm:Solving:L_Pelvis
						{
							OFFSET 0.000000 0.000000 0.000000
							CHANNELS 6 Xposition Yposition Zposition Xrotation Yrotation Zrotation
							JOINT Storm:Solving:LFemur_Joint
							{
								OFFSET 8.318080 6.728058 -6.780919
								CHANNELS 6 Xposition Yposition Zposition Xrotation Yrotation Zrotation
								JOINT Storm:Solving:LTibia_Joint
								{
									OFFSET 4.762119 -12.109562 -18.232958
									CHANNELS 6 Xposition Yposition Zposition Xrotation Yrotation Zrotation
									JOINT Storm:Solving:LAnkle_Joint
									{
										OFFSET 1.748854 12.690498 -18.426313
										CHANNELS 6 Xposition Yposition Zposition Xrotation Yrotation Zrotation
										JOINT Storm:Solving:LFoot_Joint
										{
											OFFSET 2.893215 -3.420891 -10.324425
											CHANNELS 6 Xposition Yposition Zposition Xrotation Yrotation Zrotation
											End Site
											{
												OFFSET 3.317142 -6.178677 -1.153622
											}
										}
									}
								}
							}
						}
						JOINT Storm:Solving:R_Pelvis
						{
							OFFSET 0.000000 0.000000 0.000000
							CHANNELS 6 Xposition Yposition Zposition Xrotation Yrotation Zrotation
							JOINT Storm:Solving:RFemur_Joint
							{
								OFFSET -8.082922 6.553699 -7.104603
								CHANNELS 6 Xposition Yposition Zposition Xrotation Yrotation Zrotation
								JOINT Storm:Solving:RTibia_Joint
								{
									OFFSET -3.034004 -11.551189 -18.950596
									CHANNELS 6 Xposition Yposition Zposition Xrotation Yrotation Zrotation
									JOINT Storm:Solving:RAnkle_Joint
									{
										OFFSET 0.163292 10.210636 -19.936810
										CHANNELS 6 Xposition Yposition Zposition Xrotation Yrotation Zrotation
										JOINT Storm:Solving:RFoot_Joint
										{
											OFFSET -0.793680 -0.101715 -9.967937
											CHANNELS 6 Xposition Yposition Zposition Xrotation Yrotation Zrotation
											End Site
											{
												OFFSET -4.434014 -4.525612 -1.490955
											}
										}
									}
								}
							}
						}
					}
				}
			}
		}
	}
	JOINT Storm:Solving:Root_To_Neck
	{
		OFFSET 0.000000 0.000000 0.000000
		CHANNELS 6 Xposition Yposition Zposition Xrotation Yrotation Zrotation
		JOINT Storm:Solving:Neck1
		{
			OFFSET 0.000000 -5.729186 4.185542
			CHANNELS 6 Xposition Yposition Zposition Xrotation Yrotation Zrotation
			JOINT Storm:Solving:Neck2
			{
				OFFSET 2.125778 -7.100437 5.862305
				CHANNELS 6 Xposition Yposition Zposition Xrotation Yrotation Zrotation
				JOINT Storm:Solving:Head
				{
					OFFSET -4.381103 -1.801980 5.689912
					CHANNELS 6 Xposition Yposition Zposition Xrotation Yrotation Zrotation
					JOINT Storm:Solving:Head_End
					{
						OFFSET -9.753127 -15.562062 2.579649
						CHANNELS 6 Xposition Yposition Zposition Xrotation Yrotation Zrotation
						End Site
						{
							OFFSET -4.085258 5.421284 17.259089
						}
					}
				}
			}
		}
	}
	JOINT Storm:Solving:R_Clav_1
	{
		OFFSET 0.000000 0.000000 0.000000
		CHANNELS 6 Xposition Yposition Zposition Xrotation Yrotation Zrotation
		End Site
		{
			OFFSET 0.000000 0.000000 0.010000
		}
	}
}
MOTION
Frames: 5
Frame Time: 0.041667
-4.198914 206.899734 58.731277 -4.568026 1.431753 -7.754150 -0.000003 -0.000026 0.000004 2.948569 10.661674 -0.545978 3.999998 -0.000013 -0.000002 3.024583 -11.765360 -3.713230 4.002686 -10.770036 -11.084219 -4.457528 1.893701 1.453545 2.147799 8.035199 -15.161009 -7.336100 -15.852155 14.593462 -2.240258 9.040058 -20.029099 11.000839 -1.333061 7.226331 0.706236 -1.834907 -5.721236 -1.091734 -0.336950 -0.056291 -0.000003 -0.000026 0.000004 4.350212 -12.788155 0.964668 -4.000001 0.000008 -0.000012 5.852335 21.768216 -4.603311 -4.614829 -9.889500 -11.686035 2.171492 -3.523532 -0.361793 -0.160741 5.491830 -16.404388 3.167498 0.168181 0.335152 2.412011 -1.190880 -21.935684 5.066524 -4.171244 3.740248 -0.535021 -3.806484 -3.351739 -8.318461 1.910553 -0.684791 -0.000003 -0.000026 0.000004 0.000001 -0.000000 -0.000000 0.000005 3.827276 0.000005 -0.047095 0.809289 -4.253014 0.000003 16.939230 0.000013 -8.205257 41.187198 22.972827 -0.000002 14.393879 -0.000002 -23.924452 -46.732998 -34.899156 -0.000001 14.393872 -0.000001 0.393415 19.492841 7.803680 -0.000008 -0.000019 0.000006 0.000004 0.000006 0.000003 8.318088 6.728030 -6.780920 -6.756113 -7.504428 9.300007 4.762127 -12.109593 -18.232944 -3.176655 -0.556846 -0.713820 1.748851 12.690516 -18.426319 -14.312479 -6.834637 -2.480084 2.893219 -3.420896 -10.324436 19.131963 10.037480 0.414840 -0.000005 -0.000019 0.000012 0.000005 0.000001 0.000005 -8.082955 6.553687 -7.104597 6.764947 2.409780 5.896541 -3.034004 -11.551167 -18.950542 8.759607 -1.520143 -0.567921 0.163300 10.210617 -19.936790 1.470702 -4.990930 0.101146 -0.793667 -0.101708 -9.967932 2.884284 -2.765949 -0.132121 -0.000003 -0.000026 0.000004 0.000010 0.000000 -0.000001 -0.000001 -5.729218 4.185549 -9.746435 0.422526 5.477846 2.125773 -7.100434 5.862285 7.636632 12.353819 7.861733 -4.381102 -1.801980 5.689919 -13.425737 -7.700931 -9.451972 -9.753123 -15.562039 2.579633 -0.000001 -0.000001 -0.000002 -0.000003 -0.000026 0.000004 0.000001 -0.000000 -0.000000 
-4.198914 206.899734 58.731277 -4.568026 1.431753 -7.754150 -0.000003 -0.000026 0.000004 2.948569 10.661674 -0.545978 3.999998 -0.000013 -0.000002 3.024583 -11.765360 -3.713230 4.002686 -10.770036 -11.084219 -4.457528 1.893701 1.453545 2.147799 8.035199 -15.161009 -7.336100 -15.852155 14.593462 -2.240258 9.040058 -20.029099 11.000839 -1.333061 7.226331 0.706236 -1.834907 -5.721236 -1.091734 -0.336950 -0.056291 -0.000003 -0.000026 0.000004 4.350212 -12.788155 0.964668 -4.000001 0.000008 -0.000012 5.852335 21.768216 -4.603311 -4.614829 -9.889500 -11.686035 2.171492 -3.523532 -0.361793 -0.160741 5.491830 -16.404388 3.167498 0.168181 0.335152 2.412011 -1.190880 -21.935684 5.066524 -4.171244 3.740248 -0.535021 -3.806484 -3.351739 -8.318461 1.910553 -0.684791 -0.000003 -0.000026 0.000004 0.000001 -0.000000 -0.000000 0.000005 3.827276 0.000005 -0.047095 0.809289 -4.253014 0.000003 16.939230 0.000013 -8.205257 41.187198 22.972827 -0.000002 14.393879 -0.000002 -23.924452 -46.732998 -34.899156 -0.000001 14.393872 -0.000001 0.393415 19.492841 7.803680 -0.000008 -0.000019 0.000006 0.000004 0.000006 0.000003 8.318088 6.728030 -6.780920 -6.756113 -7.504428 9.300007 4.762127 -12.109593 -18.232944 -3.176655 -0.556846 -0.713820 1.748851 12.690516 -18.426319 -14.312479 -6.834637 -2.480084 2.893219 -3.420896 -10.324436 19.131963 10.037480 0.414840 -0.000005 -0.000019 0.000012 0.000005 0.000001 0.000005 -8.082955 6.553687 -7.104597 6.764947 2.409780 5.896541 -3.034004 -11.551167 -18.950542 8.759607 -1.520143 -0.567921 0.163300 10.210617 -19.936790 1.470702 -4.990930 0.101146 -0.793667 -0.101708 -9.967932 2.884284 -2.765949 -0.132121 -0.000003 -0.000026 0.000004 0.000010 0.000000 -0.000001 -0.000001 -5.729218 4.185549 -9.746435 0.422526 5.477846 2.125773 -7.100434 5.862285 7.636632 12.353819 7.861733 -4.381102 -1.801980 5.689919 -13.425737 -7.700931 -9.451972 -9.753123 -15.562039 2.579633 -0.000001 -0.000001 -0.000002 -0.000003 -0.000026 0.000004 0.000001 -0.000000 -0.000000 
-4.215485 206.907990 58.733997 -4.567018 1.426118 -7.799180 -0.000004 0.000030 0.000003 2.948112 10.661236 -0.545870 3.999998 -0.000038 0.000005 3.023624 -11.733859 -3.677783 4.002679 -10.770038 -11.084206 -4.494980 1.861430 1.435501 2.147805 8.035217 -15.161007 -7.266322 -15.888852 14.626543 -2.240271 9.040069 -20.029091 11.009406 -1.290641 7.205848 0.706239 -1.834877 -5.721252 -1.110260 -0.342651 -0.057299 -0.000004 0.000030 0.000003 4.344647 -12.763583 0.961612 -3.999996 -0.000051 -0.000003 5.847692 21.744742 -4.636278 -4.614812 -9.889534 -11.686038 2.153048 -3.537246 -0.350537 -0.160753 5.491865 -16.404385 3.186349 0.169236 0.337117 2.412005 -1.190933 -21.935686 4.957681 -4.120544 3.796235 -0.535022 -3.806524 -3.351768 -8.148430 1.870534 -0.673579 -0.000004 0.000030 0.000003 0.000000 -0.000000 0.000000 -0.000001 3.827301 0.000008 -0.057472 0.805290 -4.256233 -0.000002 16.939257 0.000007 -8.233015 41.186611 23.015002 0.000001 14.393906 0.000001 -23.898731 -46.742191 -34.865339 0.000006 14.393895 -0.000009 0.384569 19.503945 7.793484 -0.000007 -0.000046 0.000003 -0.000002 0.000005 0.000004 8.318094 6.728033 -6.780955 -6.748936 -7.515238 9.277361 4.762125 -12.109548 -18.232935 -3.170465 -0.555798 -0.712398 1.748851 12.690507 -18.426319 -14.364718 -6.872776 -2.491097 2.893213 -3.420903 -10.324413 19.259221 10.103337 0.406303 -0.000006 -0.000050 0.000008 0.000006 0.000000 0.000006 -8.082926 6.553682 -7.104628 6.769662 2.398188 5.931379 -3.033993 -11.551208 -18.950630 8.737625 -1.516227 -0.566792 0.163293 10.210651 -19.936821 1.481913 -5.022478 0.102763 -0.793693 -0.101683 -9.967952 2.856134 -2.738914 -0.131491 -0.000004 0.000030 0.000003 -0.000000 0.000000 0.000001 -0.000001 -5.729165 4.185579 -9.735810 0.438975 5.494494 2.125775 -7.100426 5.862330 7.706631 12.326754 7.891606 -4.381106 -1.801973 5.689926 -13.529929 -7.746225 -9.382911 -9.753118 -15.562045 2.579660 -0.000001 0.000001 0.000003 -0.000004 0.000030 0.000003 0.000000 -0.000000 0.000001 
-4.233628 206.918030 58.737595 -4.574909 1.425499 -7.830706 0.000004 0.000066 0.000007 2.949303 10.695053 -0.547802 4.000005 -0.000014 -0.000002 3.022808 -11.745533 -3.709073 4.002685 -10.770054 -11.084219 -4.528332 1.792321 1.492248 2.147828 8.035189 -15.160979 -7.210959 -15.855089 14.546327 -2.240265 9.040055 -20.029079 11.012708 -1.294105 7.317261 0.706235 -1.834928 -5.721250 -1.066756 -0.329256 -0.054929 0.000004 0.000066 0.000007 4.352171 -12.785995 0.964944 -3.999998 0.000006 -0.000007 5.861627 21.776480 -4.639835 -4.614814 -9.889541 -11.686038 2.135699 -3.574719 -0.349572 -0.160753 5.491846 -16.404388 3.152372 0.167333 0.333575 2.412026 -1.190915 -21.935696 5.112590 -4.127063 3.829272 -0.535028 -3.806512 -3.351734 -8.379499 1.924930 -0.688786 0.000004 0.000066 0.000007 -0.000000 0.000000 -0.000000 -0.000001 3.827338 0.000008 -0.055036 0.795643 -4.270448 0.000004 16.939253 -0.000003 -8.248288 41.187598 23.047433 0.000006 14.393913 -0.000013 -23.909453 -46.745736 -34.861487 0.000003 14.393937 0.000003 0.379972 19.516079 7.806506 0.000006 -0.000019 -0.000008 -0.000000 0.000003 -0.000002 8.318061 6.728108 -6.780909 -6.760299 -7.506334 9.321534 4.762101 -12.109554 -18.232971 -3.183700 -0.558036 -0.715435 1.748840 12.690487 -18.426329 -14.308287 -6.823452 -2.479754 2.893207 -3.420909 -10.324421 19.128491 10.035690 0.415070 0.000012 -0.000015 -0.000003 0.000006 0.000004 0.000012 -8.082927 6.553657 -7.104639 6.781445 2.393229 5.931361 -3.034010 -11.551163 -18.950573 8.736909 -1.516102 -0.566754 0.163298 10.210649 -19.936840 1.423403 -4.901314 0.097342 -0.793699 -0.101689 -9.967957 2.935165 -2.814790 -0.133192 0.000004 0.000066 0.000007 0.000005 0.000001 -0.000000 0.000004 -5.729195 4.185509 -9.715908 0.456741 5.506815 2.125781 -7.100466 5.862290 7.822409 12.247395 7.935304 -4.381107 -1.801965 5.689939 -13.666480 -7.712090 -9.324534 -9.753126 -15.562085 2.579621 -0.000006 -0.000002 0.000001 0.000004 0.000066 0.000007 -0.000000 0.000000 0.000001 
-4.251373 206.929672 58.742935 -4.548564 1.422123 -7.845497 -0.000002 -0.000009 0.000024 2.931004 10.779358 -0.548639 3.999999 0.000033 0.000006 3.013083 -11.845974 -3.761332 4.002677 -10.770042 -11.084216 -4.550688 1.809356 1.469893 2.147799 8.035225 -15.161006 -7.160364 -15.911158 14.645614 -2.240264 9.040062 -20.029110 11.049253 -1.286778 7.304548 0.706242 -1.834917 -5.721246 -1.090704 -0.336631 -0.056233 -0.000002 -0.000009 0.000024 4.328609 -12.855400 0.964824 -3.999997 -0.000004 -0.000002 5.859321 21.851520 -4.671960 -4.614831 -9.889506 -11.686038 2.124938 -3.607872 -0.335042 -0.160742 5.491847 -16.404383 3.167927 0.168204 0.335205 2.412025 -1.190905 -21.935699 4.994330 -4.106639 3.819925 -0.535029 -3.806494 -3.351779 -8.197884 1.882167 -0.676852 -0.000002 -0.000009 0.000024 0.000000 -0.000000 0.000001 -0.000007 3.827286 0.000029 -0.097594 0.811361 -4.302564 -0.000006 16.939281 0.000019 -8.269946 41.182325 23.090945 0.000002 14.393906 0.000000 -23.948009 -46.789845 -34.899265 0.000002 14.393903 0.000001 0.377813 19.556879 7.818535 -0.000004 -0.000031 0.000008 0.000004 -0.000001 -0.000000 8.318111 6.728091 -6.780925 -6.756822 -7.494644 9.304338 4.762110 -12.109537 -18.232954 -3.180815 -0.557542 -0.714777 1.748847 12.690535 -18.426289 -14.341652 -6.915119 -2.482217 2.893221 -3.420873 -10.324415 19.243829 10.095374 0.407352 0.000000 -0.000031 0.000014 0.000004 0.000001 0.000001 -8.082921 6.553713 -7.104579 6.781035 2.398863 5.952016 -3.034005 -11.551200 -18.950592 8.730664 -1.514988 -0.566436 0.163300 10.210631 -19.936840 1.436896 -4.994441 0.102965 -0.793694 -0.101678 -9.967954 2.874671 -2.756718 -0.131910 -0.000002 -0.000009 0.000024 -0.000000 -0.000000 0.000002 0.000004 -5.729155 4.185596 -9.743496 0.436615 5.496221 2.125785 -7.100430 5.862291 7.970740 12.201660 8.001118 -4.381104 -1.802005 5.689923 -13.771284 -7.679568 -9.285915 -9.753127 -15.562071 2.579668 -0.000003 -0.000004 0.000002 -0.000002 -0.000009 0.000024 0.000000 -0.000000 0.000001 
